<svg width="340" height="61" viewBox="0 0 340 61" fill="none" xmlns="http://www.w3.org/2000/svg">
<path d="M10 0V49C10 49.0346 10.0015 49.0688 10.0049 49.1025C10.0562 49.6067 10.4823 50 11 50H49C49.5523 50 50 49.5523 50 49V20H60V56C60 58.2091 58.2091 60 56 60H4C1.79086 60 1.12747e-07 58.2091 0 56V4C0 1.79086 1.79086 1.12745e-07 4 0H10ZM56 0C58.2091 0 60 1.79086 60 4V10H31C30.4477 10 30 10.4477 30 11V19C30 19.5523 30.4477 20 31 20H40V40H20V0H56Z" fill="#C5A572"/>
<path d="M331.221 20.4739C333.995 20.4739 336.142 21.3205 337.663 23.0138C339.221 24.7071 340 27.0401 340 30.0128V49.0341C340 49.4103 339.81 49.5985 339.43 49.5985H335.097C334.717 49.5985 334.527 49.4103 334.527 49.0341V30.803C334.527 29.072 334.071 27.6986 333.159 26.6826C332.285 25.6667 331.088 25.1587 329.567 25.1587C328.009 25.1587 326.755 25.6855 325.805 26.7391C324.893 27.755 324.437 29.1285 324.437 30.8594V49.0341C324.437 49.4103 324.247 49.5985 323.867 49.5985H319.534C319.154 49.5985 318.964 49.4103 318.964 49.0341V10.6528C318.964 10.2765 319.154 10.0884 319.534 10.0884H323.867C324.247 10.0884 324.437 10.2765 324.437 10.6528V23.1832C324.437 23.296 324.456 23.3713 324.494 23.4089C324.57 23.4089 324.646 23.3525 324.722 23.2396C326.204 21.3958 328.37 20.4739 331.221 20.4739Z" fill="#F1F5F8"/>
<path d="M302.675 50.0501C299.749 50.0501 297.335 49.2975 295.435 47.7923C293.573 46.2496 292.433 44.1612 292.015 41.5272C291.749 39.8339 291.616 37.7079 291.616 35.1491C291.616 32.929 291.749 30.8406 292.015 28.8839C292.433 26.3252 293.592 24.2744 295.492 22.7316C297.392 21.1889 299.787 20.4175 302.675 20.4175C305.488 20.4175 307.863 21.1512 309.801 22.6188C311.739 24.0863 312.899 25.9677 313.279 28.2631L313.507 29.6177C313.507 29.9563 313.317 30.1633 312.937 30.2386L308.661 30.5772H308.547C308.319 30.5772 308.167 30.4455 308.091 30.1821L308.034 29.9563L307.92 29.279C307.73 28.1125 307.16 27.1342 306.21 26.344C305.26 25.5162 304.062 25.1023 302.618 25.1023C301.174 25.1023 299.977 25.535 299.027 26.4004C298.115 27.2659 297.563 28.4136 297.373 29.8435C297.183 31.4239 297.088 33.2112 297.088 35.2056C297.088 37.4256 297.202 39.2506 297.43 40.6805C297.62 42.1104 298.172 43.2581 299.084 44.1235C299.996 44.9514 301.174 45.3653 302.618 45.3653C304.1 45.3653 305.317 44.9702 306.267 44.18C307.217 43.3522 307.768 42.3362 307.92 41.1321L307.977 40.5676C308.015 40.1914 308.224 40.022 308.604 40.0596L312.88 40.3419C313.26 40.3419 313.45 40.5488 313.45 40.9627L313.279 41.9223C312.975 44.3305 311.853 46.2872 309.915 47.7923C307.977 49.2975 305.564 50.0501 302.675 50.0501Z" fill="#F1F5F8"/>
<path d="M275.737 45.3653C277.029 45.3653 278.112 45.0643 278.986 44.4622C279.898 43.8225 280.582 42.9571 281.038 41.8658C281.152 41.5272 281.38 41.3955 281.722 41.4707L285.599 42.3174C285.979 42.4303 286.112 42.656 285.998 42.9947C285.276 45.2148 284.022 46.9457 282.236 48.1874C280.449 49.4292 278.264 50.0501 275.68 50.0501C272.715 50.0501 270.321 49.3163 268.497 47.8488C266.672 46.3813 265.513 44.3681 265.019 41.8094C264.829 40.7558 264.696 39.6457 264.62 38.4792C264.582 37.2751 264.563 35.6947 264.563 33.738C264.563 31.819 264.658 30.295 264.848 29.1661C265.19 26.5321 266.311 24.4249 268.212 22.8445C270.112 21.2265 272.506 20.4175 275.395 20.4175C278.549 20.4175 281.095 21.3018 283.034 23.0703C284.972 24.8389 286.055 27.1718 286.283 30.0692C286.397 31.3486 286.454 33.7004 286.454 37.1246C286.454 37.5009 286.264 37.689 285.884 37.689H270.264C270.112 37.689 270.036 37.7643 270.036 37.9148C270.036 38.9684 270.093 39.8903 270.207 40.6805C270.397 42.0728 270.986 43.2016 271.974 44.0671C272.962 44.9326 274.216 45.3653 275.737 45.3653ZM275.452 25.1023C274.007 25.1023 272.81 25.535 271.86 26.4004C270.948 27.2659 270.397 28.3948 270.207 29.787C270.093 30.803 270.036 31.913 270.036 33.1172C270.036 33.2677 270.112 33.3429 270.264 33.3429H280.753C280.905 33.3429 280.981 33.2677 280.981 33.1172C280.905 31.612 280.829 30.5208 280.753 29.8435C280.563 28.4512 279.993 27.3223 279.043 26.4569C278.093 25.5538 276.896 25.1023 275.452 25.1023Z" fill="#F1F5F8"/>
<path d="M263.113 10.0884C263.493 10.0884 263.683 10.2765 263.683 10.6528V14.2652C263.683 14.6414 263.493 14.8296 263.113 14.8296H253.935C253.783 14.8296 253.707 14.9048 253.707 15.0554V49.0341C253.707 49.4103 253.517 49.5985 253.137 49.5985H248.804C248.424 49.5985 248.234 49.4103 248.234 49.0341V15.0554C248.234 14.9048 248.158 14.8296 248.006 14.8296H239.227C238.847 14.8296 238.657 14.6414 238.657 14.2652V10.6528C238.657 10.2765 238.847 10.0884 239.227 10.0884H263.113Z" fill="#F1F5F8"/>
<path d="M226.094 49.5985C225.904 49.5985 225.733 49.542 225.581 49.4292C225.467 49.2786 225.41 49.1093 225.41 48.9212V10.7657C225.41 10.5776 225.467 10.427 225.581 10.3142C225.733 10.1636 225.904 10.0884 226.094 10.0884H234.189C234.379 10.0884 234.531 10.1636 234.645 10.3142C234.797 10.427 234.873 10.5776 234.873 10.7657V48.9212C234.873 49.1093 234.797 49.2786 234.645 49.4292C234.531 49.542 234.379 49.5985 234.189 49.5985H226.094Z" fill="#F1F5F8"/>
<path d="M209.157 19.9658C211.589 19.9658 213.756 20.3797 215.656 21.2076C217.556 22.0354 219.038 23.1831 220.102 24.6506C221.205 26.0805 221.756 27.7173 221.756 29.5611V48.9211C221.756 49.1092 221.68 49.2786 221.528 49.4291C221.414 49.542 221.262 49.5984 221.072 49.5984H212.976C212.786 49.5984 212.615 49.542 212.463 49.4291C212.349 49.2786 212.292 49.1092 212.292 48.9211V47.2842C212.292 47.1713 212.254 47.0961 212.178 47.0585C212.102 47.0208 212.026 47.0585 211.95 47.1713C210.62 49.0528 208.416 50.0123 205.337 50.0499C202.715 50.0499 200.549 49.3914 198.838 48.0744C197.166 46.7574 196.33 44.5562 196.33 41.4706C196.33 38.1969 197.318 35.8639 199.295 34.4717C201.309 33.0794 204.235 32.3833 208.074 32.3833H212.007C212.197 32.3833 212.292 32.2892 212.292 32.1011V30.8593C212.292 29.9939 212.026 29.2977 211.494 28.7709C210.962 28.2441 210.221 27.9807 209.271 27.9807C208.549 27.9807 207.941 28.1501 207.447 28.4887C206.991 28.7897 206.668 29.2037 206.478 29.7305C206.364 30.1444 206.116 30.3325 205.736 30.2949L197.47 29.7869C197.014 29.7116 196.786 29.5047 196.786 29.166C196.9 27.3599 197.489 25.7606 198.553 24.3684C199.656 22.9761 201.119 21.9037 202.943 21.1511C204.805 20.3609 206.877 19.9658 209.157 19.9658ZM208.53 43.2203C209.556 43.2203 210.43 42.9381 211.152 42.3737C211.912 41.7716 212.292 41.0002 212.292 40.0595V38.3662C212.292 38.1781 212.197 38.084 212.007 38.084H209.442C208.34 38.084 207.466 38.3286 206.82 38.8178C206.211 39.2693 205.907 39.9278 205.907 40.7933C205.907 41.5459 206.135 42.1479 206.592 42.5995C207.086 43.0134 207.732 43.2203 208.53 43.2203Z" fill="#F1F5F8"/>
<path d="M181.671 50.0499C178.288 50.0499 175.514 49.2409 173.348 47.6229C171.181 45.9672 169.832 43.6907 169.3 40.7933C168.958 39.1 168.787 37.1433 168.787 34.9232C168.787 32.7784 168.958 30.8217 169.3 29.0531C169.832 26.2686 171.181 24.0673 173.348 22.4493C175.552 20.7937 178.326 19.9658 181.671 19.9658C184.901 19.9658 187.619 20.756 189.823 22.3364C192.027 23.9168 193.396 26.0429 193.928 28.7145C194.004 29.0908 194.08 29.6928 194.156 30.5207V30.6335C194.156 30.9722 193.947 31.1792 193.529 31.2544L185.49 32.0446H185.319C185.053 32.0446 184.882 31.8941 184.806 31.5931V31.2544L184.635 30.3513C184.445 29.6364 184.084 29.072 183.552 28.658C183.058 28.2065 182.412 27.9807 181.614 27.9807C180.018 27.9807 179.011 28.865 178.593 30.6335C178.402 31.5743 178.307 33.0042 178.307 34.9232C178.307 37.0304 178.421 38.5544 178.65 39.4951C178.84 40.2853 179.182 40.9062 179.676 41.3577C180.17 41.8093 180.816 42.035 181.614 42.035C182.488 42.035 183.172 41.8093 183.666 41.3577C184.16 40.8685 184.464 40.2477 184.578 39.4951C184.654 39.1188 184.692 38.8366 184.692 38.6485C184.768 38.1593 185.015 37.9523 185.433 38.0276L193.472 38.7049C193.928 38.7802 194.137 39.0247 194.099 39.4387C194.099 39.7773 194.061 40.21 193.985 40.7368C193.567 43.6719 192.255 45.9672 190.051 47.6229C187.847 49.2409 185.053 50.0499 181.671 50.0499Z" fill="#F1F5F8"/>
<path d="M160.562 17.8211C159.118 17.8211 157.92 17.3695 156.97 16.4665C156.058 15.5257 155.602 14.3404 155.602 12.9105C155.602 11.443 156.058 10.2577 156.97 9.35463C157.92 8.45154 159.118 8 160.562 8C162.006 8 163.184 8.45154 164.096 9.35463C165.046 10.2577 165.522 11.443 165.522 12.9105C165.522 14.3028 165.046 15.4693 164.096 16.41C163.184 17.3507 162.006 17.8211 160.562 17.8211ZM156.514 49.5985C156.324 49.5985 156.153 49.542 156.001 49.4292C155.887 49.2787 155.83 49.1093 155.83 48.9212V21.0948C155.83 20.9066 155.887 20.7561 156.001 20.6432C156.153 20.4927 156.324 20.4175 156.514 20.4175H164.609C164.799 20.4175 164.951 20.4927 165.065 20.6432C165.217 20.7561 165.294 20.9066 165.294 21.0948V48.9212C165.294 49.1093 165.217 49.2787 165.065 49.4292C164.951 49.542 164.799 49.5985 164.609 49.5985H156.514Z" fill="#F1F5F8"/>
<path d="M142.444 21.0947C142.444 20.9065 142.501 20.756 142.615 20.6431C142.767 20.4926 142.938 20.4174 143.128 20.4174H151.223C151.413 20.4174 151.565 20.4926 151.679 20.6431C151.831 20.756 151.907 20.9065 151.907 21.0947V47.1149C151.907 51.8185 150.558 55.2991 147.86 57.5569C145.199 59.8522 141.418 60.9999 136.515 60.9999C135.071 60.9999 133.741 60.9246 132.525 60.7741C132.068 60.7741 131.84 60.5483 131.84 60.0968L132.068 53.2108C132.068 52.7216 132.316 52.5146 132.81 52.5899C133.836 52.7028 134.786 52.7592 135.66 52.7592C138.016 52.7592 139.727 52.27 140.791 51.2917C141.893 50.3133 142.444 48.7706 142.444 46.6634L142.045 47.1149C140.753 48.6201 138.909 49.3726 136.515 49.3726C134.007 49.3726 131.897 48.6765 130.187 47.2842C128.477 45.8543 127.375 43.6907 126.881 40.7933C126.577 39.7397 126.425 37.7642 126.425 34.8668C126.425 33.8132 126.463 32.7031 126.539 31.5366C126.653 30.3325 126.786 29.4294 126.938 28.8274C126.976 28.7521 126.995 28.6392 126.995 28.4887C127.451 25.8171 128.477 23.7287 130.073 22.2235C131.707 20.7184 133.798 19.9658 136.344 19.9658C138.814 19.9658 140.734 20.8125 142.102 22.5058C142.178 22.6186 142.254 22.6563 142.33 22.6186C142.406 22.581 142.444 22.5058 142.444 22.3929V21.0947ZM142.216 39.1564C142.368 38.0652 142.444 36.6353 142.444 34.8668C142.444 33.023 142.349 31.5931 142.159 30.5771C142.007 29.7869 141.665 29.166 141.133 28.7145C140.639 28.2253 139.993 27.9807 139.195 27.9807C138.472 27.9807 137.864 28.2253 137.37 28.7145C136.914 29.166 136.591 29.7681 136.401 30.5207C136.097 31.9129 135.945 33.3804 135.945 34.9232C135.945 36.5036 136.059 37.9147 136.287 39.1564C136.477 39.9466 136.819 40.5675 137.313 41.0191C137.845 41.4706 138.491 41.6964 139.252 41.6964C140.05 41.6964 140.696 41.4706 141.19 41.0191C141.722 40.5675 142.064 39.9466 142.216 39.1564Z" fill="#F1F5F8"/>
<path d="M110.697 50.0499C107.163 50.0499 104.293 49.1845 102.089 47.4536C99.8847 45.685 98.5735 43.258 98.1554 40.1724C97.9274 38.7049 97.8134 36.974 97.8134 34.9797C97.8134 32.7596 97.9464 30.9722 98.2124 29.6176C98.6305 26.6449 99.9417 24.2931 102.146 22.5622C104.35 20.8313 107.201 19.9658 110.697 19.9658C114.194 19.9658 117.025 20.8313 119.191 22.5622C121.396 24.2931 122.707 26.6261 123.125 29.5611C123.391 30.991 123.524 32.7784 123.524 34.9232C123.524 36.7294 123.429 38.4415 123.239 40.0595C122.821 43.1827 121.51 45.6286 119.305 47.3971C117.101 49.1657 114.232 50.0499 110.697 50.0499ZM110.697 42.035C111.533 42.035 112.217 41.7528 112.749 41.1884C113.32 40.5863 113.7 39.7961 113.89 38.8178C114.004 37.6137 114.061 36.3343 114.061 34.9797C114.061 34.0013 113.985 32.6843 113.833 31.0286C113.681 30.0879 113.32 29.3542 112.749 28.8274C112.217 28.2629 111.533 27.9807 110.697 27.9807C109.823 27.9807 109.101 28.2629 108.531 28.8274C107.999 29.3542 107.657 30.0879 107.505 31.0286C107.353 32.1199 107.277 33.4369 107.277 34.9797C107.277 36.3343 107.334 37.6137 107.448 38.8178C107.638 39.7961 107.999 40.5863 108.531 41.1884C109.101 41.7528 109.823 42.035 110.697 42.035Z" fill="#F1F5F8"/>
<path d="M70.6841 49.5985C70.4941 49.5985 70.323 49.542 70.171 49.4292C70.057 49.2786 70 49.1093 70 48.9212V10.7657C70 10.5776 70.057 10.427 70.171 10.3142C70.323 10.1636 70.4941 10.0884 70.6841 10.0884H78.7793C78.9693 10.0884 79.1213 10.1636 79.2353 10.3142C79.3873 10.427 79.4634 10.5776 79.4634 10.7657V41.3014C79.4634 41.4895 79.5584 41.5836 79.7484 41.5836H94.6845C94.8746 41.5836 95.0266 41.6588 95.1406 41.8094C95.2926 41.9222 95.3686 42.0728 95.3686 42.2609V48.9212C95.3686 49.1093 95.2926 49.2786 95.1406 49.4292C95.0266 49.542 94.8746 49.5985 94.6845 49.5985H70.6841Z" fill="#F1F5F8"/>
<circle cx="40" cy="45" r="5" fill="#F1F5F8"/>
</svg>
